<svg id="Layer_1" data-name="Layer 1" xmlns="http://www.w3.org/2000/svg" viewBox="0 0 681.16 100"><defs><style>.cls-1,.cls-6{fill:#390;}.cls-1,.cls-2,.cls-5{opacity:0.5;}.cls-2,.cls-3{fill:#69c;}.cls-4,.cls-5{fill:#007d64;}.cls-7{fill:#039;}.cls-8{fill:#fc0;}.cls-9{fill:#737d82;}</style></defs><rect class="cls-1" x="25.08" y="58.05" width="59.06" height="5.37"/><rect class="cls-2" x="25.08" y="20.47" width="59.06" height="5.37"/><rect class="cls-3" x="30.45" y="20.47" width="48.32" height="5.37"/><rect class="cls-4" x="78.77" y="25.84" width="5.37" height="32.22"/><rect class="cls-5" x="84.14" y="25.84" width="5.37" height="32.22"/><rect class="cls-3" x="25.08" y="25.84" width="5.37" height="32.22"/><rect class="cls-2" x="19.71" y="25.84" width="5.37" height="32.22"/><polygon class="cls-6" points="51.92 63.42 78.77 63.42 78.77 58.05 30.45 58.05 30.45 63.42 41.18 63.42 41.18 68.79 46.55 68.79 46.55 74.16 51.92 74.16 51.92 63.42"/><rect class="cls-6" x="51.92" y="74.16" width="5.37" height="5.37"/><rect class="cls-7" x="30.45" y="25.84" width="48.32" height="32.22"/><polygon class="cls-8" points="53.44 33.15 54.61 32.3 55.79 33.15 55.34 31.77 56.53 30.91 55.06 30.91 54.61 29.51 54.16 30.91 52.7 30.91 53.89 31.77 53.44 33.15"/><polygon class="cls-8" points="48.13 34.58 49.31 33.72 50.48 34.58 50.03 33.2 51.22 32.34 49.76 32.34 49.31 30.94 48.86 32.34 47.39 32.34 48.58 33.2 48.13 34.58"/><polygon class="cls-8" points="45.42 34.83 44.97 36.23 43.5 36.23 44.7 37.09 44.25 38.47 45.42 37.61 46.6 38.47 46.15 37.09 47.34 36.23 45.87 36.23 45.42 34.83"/><polygon class="cls-8" points="44 42.91 45.17 43.77 44.72 42.38 45.92 41.53 44.45 41.53 44 40.13 43.55 41.53 42.08 41.53 43.27 42.38 42.82 43.77 44 42.91"/><polygon class="cls-8" points="45.87 46.84 45.42 45.44 44.97 46.84 43.5 46.84 44.7 47.7 44.25 49.08 45.42 48.22 46.6 49.08 46.15 47.7 47.34 46.84 45.87 46.84"/><polygon class="cls-8" points="49.76 50.73 49.31 49.33 48.87 50.73 47.4 50.73 48.59 51.59 48.14 52.97 49.31 52.11 50.49 52.97 50.04 51.59 51.23 50.73 49.76 50.73"/><polygon class="cls-8" points="55.06 52.14 54.62 50.74 54.17 52.14 52.7 52.14 53.89 53 53.44 54.38 54.62 53.52 55.79 54.38 55.34 53 56.53 52.14 55.06 52.14"/><polygon class="cls-8" points="60.37 50.73 59.92 49.33 59.47 50.73 58 50.73 59.19 51.59 58.74 52.97 59.92 52.11 61.09 52.97 60.64 51.59 61.84 50.73 60.37 50.73"/><polygon class="cls-8" points="64.26 46.84 63.81 45.44 63.36 46.84 61.89 46.84 63.08 47.7 62.63 49.08 63.81 48.22 64.98 49.08 64.53 47.7 65.73 46.84 64.26 46.84"/><polygon class="cls-8" points="67.14 41.51 65.67 41.51 65.22 40.11 64.77 41.51 63.3 41.51 64.49 42.37 64.04 43.75 65.22 42.9 66.39 43.75 65.94 42.37 67.14 41.51"/><polygon class="cls-8" points="62.63 38.45 63.81 37.6 64.98 38.45 64.53 37.07 65.73 36.22 64.26 36.22 63.81 34.81 63.36 36.22 61.89 36.22 63.08 37.07 62.63 38.45"/><polygon class="cls-8" points="59.93 30.94 59.48 32.34 58.01 32.34 59.2 33.2 58.76 34.58 59.93 33.72 61.1 34.58 60.66 33.2 61.85 32.34 60.38 32.34 59.93 30.94"/><rect class="cls-6" x="168.5" y="39.23" width="9" height="9"/><path class="cls-6" d="M109,32.41V57.87h-5.92V32.41H96.65V27.46h18.73v4.95Z"/><path class="cls-6" d="M136.17,47l-14.57,2c.5,3.32,2.94,5,6.26,5a14.52,14.52,0,0,0,6.3-1.43l1.64,4.29a20.06,20.06,0,0,1-8.36,1.63C120,58.37,116,53.5,116,46.53s3.91-11.81,10.5-11.81c6.26,0,9.75,4.12,9.75,10.29A14.29,14.29,0,0,1,136.17,47Zm-9.78-8.07c-3,0-5.09,2.19-5.17,6.43l9.49-1.3C130.71,40.6,129,38.88,126.39,38.88Z"/><path class="cls-6" d="M151.08,58.37c-7.31,0-11.3-4.32-11.3-11.67,0-7,3.66-11.68,10.59-11.68a11,11,0,0,1,3.23.46V24.89h5.76V56.74A19.41,19.41,0,0,1,151.08,58.37Zm2.52-18.61a8,8,0,0,0-2.64-.42c-3.57,0-5.46,3-5.46,7.27,0,4.58,1.93,7.27,5.46,7.27a7,7,0,0,0,2.64-.46Z"/><path class="cls-9" d="M194,58.29a17.85,17.85,0,0,1-7.68-1.55V28.59A17.26,17.26,0,0,1,194,27c7.23,0,13,5,13,15.62S201.23,58.29,194,58.29Zm.05-29a14.31,14.31,0,0,0-5.17.84V55.22a13.48,13.48,0,0,0,5.17.84c5.63,0,10.33-4.07,10.33-13.4S199.68,29.26,194.05,29.26Z"/><path class="cls-9" d="M230.25,45.52l-15.88,2.35c.34,5.55,3.45,8.36,8.24,8.36a13.24,13.24,0,0,0,6.13-1.43l.84,1.94a15.17,15.17,0,0,1-7.06,1.55c-6.47,0-10.54-4.08-10.54-11.76,0-7,3.65-11.72,9.58-11.72,5.25,0,8.73,3.4,8.73,9.36C230.29,44.59,230.29,45,230.25,45.52Zm-8.69-8.74c-4.46,0-7.19,3.66-7.31,9.2l13.65-2C227.86,39.09,225.34,36.78,221.56,36.78Z"/><path class="cls-9" d="M245.16,57.87h-2.81L234,35.23h2.68l6.05,17a32.5,32.5,0,0,1,1,3.28h.08c.13-.51.63-2.27,1-3.28l6.05-17h2.69Z"/><path class="cls-9" d="M275.28,45.52,259.4,47.87c.33,5.55,3.44,8.36,8.23,8.36a13.21,13.21,0,0,0,6.13-1.43l.84,1.94a15.16,15.16,0,0,1-7.05,1.55c-6.47,0-10.55-4.08-10.55-11.76,0-7,3.66-11.72,9.58-11.72,5.25,0,8.74,3.4,8.74,9.36C275.32,44.59,275.32,45,275.28,45.52Zm-8.7-8.74c-4.45,0-7.18,3.66-7.31,9.2l13.65-2C272.88,39.09,270.36,36.78,266.58,36.78Z"/><path class="cls-9" d="M281.28,57.87v-33h2.48v33Z"/><path class="cls-9" d="M299,58.29c-6.13,0-9.32-5.08-9.32-11.76s3.19-11.72,9.32-11.72,9.33,5,9.33,11.72S305.18,58.29,299,58.29Zm0-21.42c-4.66,0-6.84,4.11-6.84,9.66s2.18,9.66,6.84,9.66,6.85-4.12,6.85-9.66S303.71,36.87,299,36.87Z"/><path class="cls-9" d="M321,58.16a14,14,0,0,1-4.41-.67V66.9h-2.48V36.36a15.49,15.49,0,0,1,6.81-1.55c6.68,0,10.54,4.62,10.54,11.42S327.69,58.16,321,58.16Zm0-21.29a11.16,11.16,0,0,0-4.37.84V55.43a14.79,14.79,0,0,0,4.28.67c5.3,0,8.11-4.24,8.11-9.87S326.13,36.87,321,36.87Z"/><path class="cls-9" d="M354.57,45.52l-15.88,2.35c.34,5.55,3.45,8.36,8.23,8.36a13.25,13.25,0,0,0,6.14-1.43l.84,1.94a15.17,15.17,0,0,1-7.06,1.55c-6.47,0-10.54-4.08-10.54-11.76,0-7,3.65-11.72,9.57-11.72,5.26,0,8.74,3.4,8.74,9.36C354.61,44.59,354.61,45,354.57,45.52Zm-8.7-8.74c-4.45,0-7.18,3.66-7.3,9.2l13.65-2C352.18,39.09,349.66,36.78,345.87,36.78Z"/><path class="cls-9" d="M369.56,37a11,11,0,0,0-1.68-.12,13.5,13.5,0,0,0-5,.88V57.87h-2.48V36.36a19.67,19.67,0,0,1,7.82-1.55,16.59,16.59,0,0,1,1.93.08Z"/><path class="cls-9" d="M394.59,58.29a17.85,17.85,0,0,1-7.68-1.55V28.59A17.23,17.23,0,0,1,394.59,27c7.23,0,13,5,13,15.62S401.82,58.29,394.59,58.29Zm.05-29a14.31,14.31,0,0,0-5.17.84V55.22a13.48,13.48,0,0,0,5.17.84c5.62,0,10.33-4.07,10.33-13.4S400.26,29.26,394.64,29.26Z"/><path class="cls-9" d="M421.89,58.29c-6.13,0-9.32-5.08-9.32-11.76s3.19-11.72,9.32-11.72,9.33,5,9.33,11.72S428,58.29,421.89,58.29Zm0-21.42c-4.66,0-6.84,4.11-6.84,9.66s2.18,9.66,6.84,9.66,6.85-4.12,6.85-9.66S426.56,36.87,421.89,36.87Z"/><path class="cls-9" d="M445.62,58.29c-4.58,0-9.53-3.32-9.53-11.76s5-11.72,9.53-11.72A10,10,0,0,1,451,36.36l-.88,1.85a7.94,7.94,0,0,0-4.33-1.3c-3.44,0-7.18,2.52-7.18,9.62s3.78,9.62,7.18,9.62a7.94,7.94,0,0,0,4.33-1.31l.88,1.9A9.84,9.84,0,0,1,445.62,58.29Z"/><path class="cls-9" d="M464.69,58.29c-5.33,0-8.36-2.48-8.36-7.73V35.23h2.48V50.6c0,3.78,2,5.59,5.88,5.59a14.33,14.33,0,0,0,5.42-.93v-20h2.48V56.74A19,19,0,0,1,464.69,58.29Z"/><path class="cls-9" d="M506.23,57.87V42c0-3.27-2.31-5.16-5.42-5.16a7.12,7.12,0,0,0-5.58,2.26V57.87h-2.48V41.36c0-2.77-2.48-4.49-6-4.49a13.33,13.33,0,0,0-5.08.92V57.87h-2.48V36.36a19.12,19.12,0,0,1,7.52-1.55c3.45,0,5.92,1.26,7.1,2.77a10.49,10.49,0,0,1,7.31-2.77c4.49,0,7.56,2.73,7.56,7.1v16Z"/><path class="cls-9" d="M532.73,45.52l-15.88,2.35c.34,5.55,3.45,8.36,8.24,8.36a13.21,13.21,0,0,0,6.13-1.43l.84,1.94A15.17,15.17,0,0,1,525,58.29c-6.47,0-10.54-4.08-10.54-11.76,0-7,3.65-11.72,9.58-11.72,5.25,0,8.73,3.4,8.73,9.36C532.77,44.59,532.77,45,532.73,45.52ZM524,36.78c-4.46,0-7.19,3.66-7.31,9.2l13.65-2C530.34,39.09,527.82,36.78,524,36.78Z"/><path class="cls-9" d="M552.68,57.87V42.41c0-3.36-2.06-5.54-6.17-5.54a15.66,15.66,0,0,0-5.51.92V57.87h-2.48V36.36a20.1,20.1,0,0,1,8-1.55c5.62,0,8.65,2.81,8.65,7.47V57.87Z"/><path class="cls-9" d="M568.93,58.08c-3.36,0-5.75-1.85-5.75-5.67V37.12h-3.53V35.23h3.53V29.6l2.39-.93v6.56h5.13v1.89h-5.13v15.2c0,2.52,1.72,3.57,3.74,3.57a4.28,4.28,0,0,0,1.39-.21v2.15A4.61,4.61,0,0,1,568.93,58.08Z"/><path class="cls-9" d="M583.76,58.29c-5.92,0-9-2.65-9-6.76,0-6.6,7.23-7.44,14.07-7.82v-2c0-3.82-2.56-5-5.92-5a14.54,14.54,0,0,0-6.05,1.43l-.75-1.85a17.38,17.38,0,0,1,7-1.55c4.75,0,8.15,1.89,8.15,7.1V56.74A17.67,17.67,0,0,1,583.76,58.29Zm5.12-12.69c-5.42.3-11.67.59-11.67,5.88,0,2.9,2.1,4.83,6.51,4.83a14.42,14.42,0,0,0,5.16-.84Z"/><path class="cls-9" d="M605.05,58.08c-3.36,0-5.75-1.85-5.75-5.67V37.12h-3.53V35.23h3.53V29.6l2.39-.93v6.56h5.13v1.89h-5.13v15.2c0,2.52,1.72,3.57,3.74,3.57a4.33,4.33,0,0,0,1.39-.21v2.15A4.61,4.61,0,0,1,605.05,58.08Z"/><path class="cls-9" d="M613.33,30.19a1.73,1.73,0,1,1,0-3.45,1.73,1.73,0,0,1,0,3.45Zm-1.27,27.68V35.23h2.48V57.87Z"/><path class="cls-9" d="M629.83,58.29c-6.13,0-9.32-5.08-9.32-11.76s3.19-11.72,9.32-11.72,9.33,5,9.33,11.72S636,58.29,629.83,58.29Zm0-21.42c-4.66,0-6.84,4.11-6.84,9.66s2.18,9.66,6.84,9.66,6.85-4.12,6.85-9.66S634.5,36.87,629.83,36.87Z"/><path class="cls-9" d="M659.07,57.87V42.41c0-3.36-2.06-5.54-6.18-5.54a15.6,15.6,0,0,0-5.5.92V57.87h-2.48V36.36a20,20,0,0,1,8-1.55c5.63,0,8.65,2.81,8.65,7.47V57.87Z"/></svg>